{"title":"World Without End (1956) [hiest]","uid":5538941,"size":1113169139,"categoryP":"video","categoryS":"movies","magnet":"?xt=urn:btih:faa18ff839afdb59458a1603b64d3afb08f192d7&amp;dn=World+Without+End+%281956%29+%5Bhiest%5D&amp;tr=udp%3A%2F%2Ftracker.openbittorrent.com%3A80&amp;tr=udp%3A%2F%2Fopen.demonii.com%3A1337&amp;tr=udp%3A%2F%2Ftracker.coppersurfer.tk%3A6969&amp;tr=udp%3A%2F%2Fexodus.desync.com%3A6969","seeders":0,"leechers":2,"uploader":"hiest","files":-1,"time":1273161748,"description":"Movies : Sci-Fi : DVD Rip : English\nWorld Without End (1956)\n\n \nFour astronauts returning from mankind's first mission to Mars, \nenter a time warp and crash on a 26th Century Earth devastated by atomic war. \nOur heroes meet with hideous mutant cavemen, giant spiders, love-struck beauties in short dresses, \nand jealous old geezers in sparkly skullcaps as they struggle to save humanity and build a new world.\n\n\nDirector: Edward Bernds\n\n\nHugh Marlowe ... John Borden\nNancy Gates ... Garnet\nNelson Leigh ... Dr. Eldon Galbraithe\nRod Taylor ... Herbert Ellis\nShirley Patterson .. Elaine \nLisa Montell ... Deena\n\n \n\nFormat : AVI\nFormat/Info : Audio Video Interleave\nFile size : 1.04 GiB\nDuration : 1h 20mn\nOverall bit rate : 1 840 Kbps\n\nVideo\nFormat : MPEG-4 Visual\nFormat profile : Simple@L3\nFormat settings, BVOP : No\nFormat settings, QPel : No\nFormat settings, GMC : No warppoints\nFormat settings, Matrix : Default\nCodec ID : XVID\nCodec ID/Hint : XviD\nDuration : 1h 20mn\nBit rate : 1 634 Kbps\nWidth : 640 pixels\nHeight : 360 pixels\nDisplay aspect ratio : 16/9\nFrame rate : 29.970 fps\nOriginal frame rate : 29.969 fps\nResolution : 24 bits\nColorimetry : 4:2:0\nScan type : Progressive\nBits/(Pixel*Frame) : 0.237\nStream size : 943 MiB (89%)\nWriting library : Magic0432\n\nAudio\nFormat : MPEG Audio\nFormat version : Version 1\nFormat profile : Layer 3\nCodec ID : 55\nCodec ID/Hint : MP3\nDuration : 1h 20mn\nBit rate mode : Constant\nBit rate : 192 Kbps\nChannel(s) : 2 channels\nSampling rate : 44.1 KHz\nResolution : 16 bits\nStream size : 111 MiB (10%)\nAlignment : Aligned on interleaves\nInterleave, duration : 26 ms (0.78 video frame)\nWriting library : LAME3.97\n\n &lt;a href=&quot;\nhttp://www.imdb.com/title/tt0049964/&quot; rel=&quot;nofollow&quot; target=&quot;_NEW&quot;&gt;\nhttp://www.imdb.com/title/tt0049964/&lt;/a&gt;","torrent":{"xt":"urn:btih:faa18ff839afdb59458a1603b64d3afb08f192d7","amp;dn":"World+Without+End+%281956%29+%5Bhiest%5D","amp;tr":["udp%3A%2F%2Ftracker.openbittorrent.com%3A80","udp%3A%2F%2Fopen.demonii.com%3A1337","udp%3A%2F%2Ftracker.coppersurfer.tk%3A6969","udp%3A%2F%2Fexodus.desync.com%3A6969"],"infoHash":"faa18ff839afdb59458a1603b64d3afb08f192d7","infoHashBuffer":{"type":"Buffer","data":[250,161,143,248,57,175,219,89,69,138,22,3,182,77,58,251,8,241,146,215]},"announce":[],"urlList":[]}}